<svg xmlns="http://www.w3.org/2000/svg" fill="none" viewBox="0 0 170 36" height="36" width="170">
<g clip-path="url(#clip0_4420_7648)">
<path fill="white" d="M50.2759 -0.155273H3.7242C1.92451 -0.155273 0.465576 1.30366 0.465576 3.10335V32.8964C0.465576 34.6961 1.92451 36.1551 3.7242 36.1551H50.2759C52.0756 36.1551 53.5345 34.6961 53.5345 32.8964V3.10335C53.5345 1.30366 52.0756 -0.155273 50.2759 -0.155273Z"></path>
<path fill="black" d="M16.365 13.2761C15.9723 13.746 15.3438 14.1167 14.7154 14.0637C14.6368 13.4283 14.9444 12.7532 15.3045 12.3363C15.6973 11.8531 16.3846 11.5089 16.9411 11.4824C17.0066 12.1443 16.7513 12.7929 16.365 13.2761ZM16.9345 14.1895C16.3809 14.1573 15.8757 14.3578 15.4677 14.5198C15.2051 14.6241 14.9827 14.7124 14.8135 14.7124C14.6237 14.7124 14.3921 14.6194 14.1322 14.5149C13.7915 14.3781 13.4021 14.2217 12.9936 14.2292C12.0576 14.2425 11.1869 14.7786 10.709 15.6323C9.72699 17.34 10.4537 19.8683 11.4029 21.2583C11.8677 21.9466 12.4241 22.7012 13.1573 22.6747C13.4799 22.6624 13.7119 22.5629 13.952 22.4598C14.2284 22.3412 14.5157 22.218 14.9641 22.218C15.397 22.218 15.6716 22.338 15.9352 22.4532C16.1859 22.5628 16.4266 22.6679 16.784 22.6614C17.5434 22.6482 18.0212 21.9731 18.4861 21.2847C18.9876 20.546 19.208 19.825 19.2415 19.7156L19.2454 19.7029C19.2454 19.7029 19.2384 19.6992 19.2275 19.6941C19.0598 19.6165 17.7782 19.0233 17.7659 17.4327C17.7536 16.0976 18.7824 15.4211 18.9444 15.3146C18.9543 15.308 18.9609 15.3037 18.9639 15.3014C18.3093 14.3219 17.288 14.2159 16.9345 14.1895ZM22.1912 22.5886V12.2701H26.0208C27.9979 12.2701 29.3792 13.6467 29.3792 15.6589C29.3792 17.6709 27.9716 19.0609 25.9685 19.0609H23.7755V22.5886H22.1912ZM23.7755 13.6203H25.6019C26.9766 13.6203 27.7622 14.3616 27.7622 15.6655C27.7622 16.9694 26.9766 17.7173 25.5954 17.7173H23.7755V13.6203ZM34.6096 21.3509C34.1907 22.1584 33.2676 22.6681 32.2726 22.6681C30.7997 22.6681 29.7719 21.7812 29.7719 20.4442C29.7719 19.1204 30.767 18.3593 32.6065 18.2468L34.5835 18.1276V17.5584C34.5835 16.7178 34.0401 16.2611 33.0713 16.2611C32.2726 16.2611 31.69 16.6782 31.5721 17.3135H30.145C30.1908 15.9765 31.4347 15.0036 33.1171 15.0036C34.9304 15.0036 36.1088 15.9633 36.1088 17.4525V22.5886H34.6424V21.3509H34.6096ZM32.6981 21.4437C31.8537 21.4437 31.3168 21.0333 31.3168 20.4044C31.3168 19.7559 31.834 19.3785 32.8225 19.319L34.5835 19.2065V19.7889C34.5835 20.7552 33.7717 21.4437 32.6981 21.4437ZM40.9727 22.9924C40.3377 24.7993 39.6111 25.395 38.0661 25.395C37.9483 25.395 37.5555 25.3817 37.4638 25.3553V24.1176C37.562 24.1308 37.8043 24.144 37.9287 24.144C38.6291 24.144 39.0219 23.8462 39.2641 23.0718L39.4081 22.6151L36.7241 15.1028H38.3803L40.246 21.1987H40.2788L42.1445 15.1028H43.7549L40.9727 22.9924Z" clip-rule="evenodd" fill-rule="evenodd"></path>
</g>
<path fill="white" d="M107.18 36H62.0983C59.834 36 58 34.21 58 32V4C58 1.79 59.834 0 62.0983 0H107.18C109.444 0 111.278 1.79 111.278 4V32C111.278 34.21 109.444 36 107.18 36Z"></path>
<path fill="#172B85" d="M70.8832 18.6758L69.6189 12.4118C69.6189 12.4118 69.0493 11.0518 67.5636 11.0518C66.078 11.0518 61.7563 11.0518 61.7563 11.0518C61.7563 11.0518 69.1599 13.2578 70.8832 18.6758Z"></path>
<path fill="#172B85" d="M78.0449 24.8275H81.799L84.0694 11.0195H80.2703L78.0449 24.8275Z"></path>
<path fill="#172B85" d="M74.7702 11.0195L71.3359 20.8535C71.3359 20.8535 71.1392 20.0155 71.0551 19.4955C69.0982 15.2155 65.9241 13.6475 65.9241 13.6475L68.9384 24.8275L73.0735 24.8255L78.7866 11.0195H74.7702Z"></path>
<path fill="#172B85" d="M89.3952 14.9742C89.3952 14.1742 90.0469 13.5782 91.9136 13.5782C93.1288 13.5782 94.5181 14.4702 94.5181 14.4702L95.1267 11.4202C95.1267 11.4202 93.348 10.7422 91.6083 10.7422C87.6617 10.7422 85.6228 12.6482 85.6228 15.0602C85.6228 19.4222 90.8276 18.8262 90.8276 21.0682C90.8276 21.4502 90.5243 22.3382 88.3563 22.3382C86.1842 22.3382 84.7519 21.5322 84.7519 21.5322L84.1023 24.4582C84.1023 24.4582 85.4916 25.2602 88.1821 25.2602C90.8706 25.2602 94.6042 23.2282 94.6042 20.3062C94.6042 16.7922 89.3952 16.5402 89.3952 14.9742Z"></path>
<path fill="#172B85" d="M104.614 11.0195H100.665L94.5037 24.8255H98.2311L99.0036 22.8555H103.702L104.106 24.8255H107.522L104.614 11.0195ZM100.045 20.2175L102.086 15.0015L103.157 20.2175H100.045Z"></path>
<g clip-path="url(#clip1_4420_7648)">
<path fill="white" d="M164.649 -0.128906H119.906C117.563 -0.128906 115.664 1.77069 115.664 4.11395V31.8854C115.664 34.2286 117.563 36.1282 119.906 36.1282H164.649C166.993 36.1282 168.892 34.2286 168.892 31.8854V4.11395C168.892 1.77069 166.993 -0.128906 164.649 -0.128906Z"></path>
<path fill="#ED0006" d="M142.582 26.3023C140.744 27.8888 138.359 28.8465 135.753 28.8465C129.939 28.8465 125.225 24.0782 125.225 18.1962C125.225 12.3142 129.939 7.5459 135.753 7.5459C138.359 7.5459 140.744 8.50363 142.582 10.0901C144.421 8.50363 146.805 7.5459 149.411 7.5459C155.226 7.5459 159.939 12.3142 159.939 18.1962C159.939 24.0782 155.226 28.8465 149.411 28.8465C146.805 28.8465 144.421 27.8888 142.582 26.3023Z" clip-rule="evenodd" fill-rule="evenodd"></path>
<path fill="#F9A000" d="M142.582 26.3023C144.846 24.3489 146.281 21.4421 146.281 18.1962C146.281 14.9503 144.846 12.0436 142.582 10.0901C144.421 8.50363 146.805 7.5459 149.411 7.5459C155.226 7.5459 159.939 12.3142 159.939 18.1962C159.939 24.0782 155.226 28.8465 149.411 28.8465C146.805 28.8465 144.421 27.8888 142.582 26.3023Z" clip-rule="evenodd" fill-rule="evenodd"></path>
<path fill="#FF5E00" d="M142.582 10.0898C144.846 12.0433 146.281 14.95 146.281 18.1959C146.281 21.4418 144.846 24.3485 142.582 26.302C140.319 24.3485 138.883 21.4418 138.883 18.1959C138.883 14.95 140.319 12.0433 142.582 10.0898Z" clip-rule="evenodd" fill-rule="evenodd"></path>
</g>
<defs>
<clipPath id="clip0_4420_7648">
<rect fill="white" height="36" width="54"></rect>
</clipPath>
<clipPath id="clip1_4420_7648">
<rect transform="translate(115.278)" fill="white" height="36" width="54"></rect>
</clipPath>
</defs>
</svg>
